<?xml version="1.0" encoding="UTF-8"?>
<svg id="Capa_2" data-name="Capa 2" xmlns="http://www.w3.org/2000/svg" viewBox="0 0 252.56 254.72">
  <defs>
    <style>
      .cls-1 {
        fill: #a81522;
      }
    </style>
  </defs>
  <g id="Capa_1-2" data-name="Capa 1">
    <g>
      <path class="cls-1" d="M88.47,.96C63.37,4.16,38.57,18.56,21.77,39.76-.23,67.26-6.23,109.26,6.87,142.36c1.8,4.4,4.3,9.7,5.7,11.7,1.3,2.1,2.4,4,2.4,4.3,0,3.4,18.9,24,28.8,31.6,7.9,6,32.6,18.2,41.2,20.4,3.6,.9,11.9,1.9,18.5,2.2,15.1,.7,26.4-1.2,41.2-6.7,9.7-3.7,11.6-4.1,21.5-4.3,12.3-.2,11.9,.1,9.4-9.2-2-7.8-4.9-12.5-11.7-19.3-10.5-10.6-19.1-14.2-33.7-14.2-16.2,0-28.1,4.9-39.9,16.6-4.2,4-7.8,7.4-8,7.4s.4-1.4,1.4-3.1c2.7-4.5,14.2-15.3,18.9-17.7,14.7-7.5,35.1-8.2,48.9-1.6,5.4,2.5,17.1,13.8,20.4,19.6l2.8,4.8,8.9-9.2c10.7-11.1,16.9-20.8,21.9-34.2,10.7-28.9,9.7-54.2-3.4-82.9-7.9-17.5-28.3-38.1-47.1-47.7C137.17,1.86,111.77-1.94,88.47,.96Zm-.3,24.4c13.3,2.8,19.7,5.4,24.5,10.1,5.3,5,5.2,2.1,.5,29-2.9,17-4.3,20.4-9.3,23.2-3.4,2-3.6,2.8-1,3.7,2.6,.8,7.1,5.4,8.2,8.4,.7,1.6,.5,5.2-.5,10.5-.8,4.5-2.2,13-3.1,19.1-1.9,12.4-2.6,14-7.5,18.2-6,5-9.2,5.8-24.5,5.8h-14l-8-3.8c-12.3-5.9-17.5-11.7-17.5-19.7,0-5.7,5-32.9,6.6-36.1,.7-1.4,3.2-3.4,5.6-4.4s4.4-2,4.6-2.1-1.7-2.1-4.2-4.4c-7.1-6.5-7.2-7.6-3-29.6,1.9-10.4,4.3-20.2,5.3-21.9,3.7-6.5,21.2-9.3,37.3-6Zm81.5,55.9c8.9,2.9,17,7.8,19.2,11.8,1.3,2.3,1.1,4.5-2.2,22.3-2,10.9-4.3,20.9-5,22.3-1.8,3.9-8.4,8-15.7,9.8-7.4,1.9-19.3,1.4-27.1-1-11.1-3.4-21.1-10.7-22.5-16.3-1.3-4.9,4.8-41.7,7.5-45.3,1-1.4,4.2-3.5,7.2-4.8,4.9-2.1,6.6-2.2,17.9-1.9,10,.4,14.1,1,20.7,3.1Zm-28.4,81.1c16.4,4.3,26,13.4,31.8,30.4,1.1,3,1.9,5.8,1.9,6.3,0,1-95.5,.6-96.5-.4-.4-.3,1.2-4.3,3.5-8.7,11.2-21.6,36.8-33.5,59.3-27.6Z"/>
      <path class="cls-1" d="M67.17,49.76c-4.9,1.3-5.9,2.6-3.8,5,7.2,7.9,34.1,9.5,34.1,2,0-4.1-6.8-7-17.8-7.4-5-.3-10.7,0-12.5,.4Z"/>
      <path class="cls-1" d="M64.97,95.06c0,.3,.7,2.5,1.5,4.8,2.9,8.3,1,13.3-5.5,14.7-3.9,.7-2.7,2.3,4.2,5.3,6.7,2.9,18.7,3.7,24.3,1.7,4.7-1.6,5.5-4.3,3-10.3-4.2-10.2-11-15.2-21.7-16.2-3.2-.2-5.8-.2-5.8,0Z"/>
      <path class="cls-1" d="M141.67,105.26c-5.8,1.6-6.4,2.1-4.7,4.1,4.9,5.9,23.3,9.5,31.4,6.1,6.3-2.6,5.8-5.4-1.7-8.7-6.4-2.7-18.1-3.5-25-1.5Z"/>
      <path class="cls-1" d="M112.27,172.96c-5.9,1.9-10.3,4-12.4,5.9-1.7,1.7-3,3.2-2.8,3.4s5.8-.3,12.4-1.1c13.3-1.6,22.6-.9,38.4,2.8,9.8,2.3,13.4,2.2,13.9-.4,.6-3-2.7-6.8-8.1-9.2-12.6-5.5-27.2-6-41.4-1.4Z"/>
      <path class="cls-1" d="M236.97,215.46c-2.5,.2-10.8,1.1-18.5,1.9-13.1,1.4-51.3,4.8-67,6-3.8,.3-11,1-16,1.6-4.9,.5-19.8,2.1-33,3.5s-33.2,3.6-44.5,5c-11.3,1.3-22.7,2.6-25.5,2.9-9.9,1.1-29.5,4.8-29.5,5.7,0,.4,.7,.8,1.4,.8,3.4,0,72.7-4.2,92.1-5.5,11.6-.8,21.6-1.5,22.3-1.5,1.3,0,1.7,3.6,.4,4.4-.9,.6-8.1,1.3-44.7,4.6-24.4,2.3-57.5,6.3-67.5,8.2l-6.5,1.3,6.5,.3c3.6,.2,18.2-.1,32.5-.7,59.1-2.6,73.6-3.1,106-4.1,69.2-2,101.1-3.1,103.3-3.6,4.4-.9,5.2-8.3,1.2-10.4-2-1.1-24.7-.4-84.5,2.6-36.5,1.7-35.5,1.7-35.5,0,0-1.1,2.6-1.5,11.3-2.1,14.5-.8,58.3-4.1,85.6-6.5,20.1-1.7,21.6-1.9,23.4-4.1,1.9-2.4,1.7-6.3-.7-8.7-1.4-1.5-6.3-2.1-12.6-1.6Z"/>
    </g>
  </g>
</svg>